<svg xmlns="http://www.w3.org/2000/svg" viewBox="0 0 439.44 355.1"><defs><style>.cls-1{fill:none;stroke:#4ca3f2;stroke-linecap:round;stroke-linejoin:round;stroke-width:13.59px;}</style></defs><title>Asset 3</title><g id="Layer_2" data-name="Layer 2"><g id="Layer_2-2" data-name="Layer 2"><path class="cls-1" d="M430.56,23.79h1.51c-19.15,0-25.41-17-42.83-17-18.31,0-25.09,17-42.83,17-19.16,0-25.41-17-42.83-17-18.31,0-25.09,17-42.83,17h1.52c-19.16,0-25.42-17-42.83-17-18.32,0-25.1,17-42.83,17-19.16,0-25.42-17-42.84-17-18.31,0-25.09,17-42.83,17h1.52c-19.16,0-25.42-17-42.83-17-18.32,0-25.1,17-42.83,17"/><path class="cls-1" d="M430.56,116.42h1.51c-19.15,0-25.41-17-42.83-17-18.31,0-25.09,17-42.83,17-19.16,0-25.41-17-42.83-17-18.31,0-25.09,17-42.83,17h1.52c-19.16,0-25.42-17-42.83-17-18.32,0-25.1,17-42.83,17-19.16,0-25.42-17-42.84-17-18.31,0-25.09,17-42.83,17h1.52c-19.16,0-25.42-17-42.83-17-18.32,0-25.1,17-42.83,17"/><path class="cls-1" d="M430.56,70.11h1.51c-19.15,0-25.41-17-42.83-17-18.31,0-25.09,17-42.83,17-19.16,0-25.41-17-42.83-17-18.31,0-25.09,17-42.83,17h1.52c-19.16,0-25.42-17-42.83-17-18.32,0-25.1,17-42.83,17-19.16,0-25.42-17-42.84-17-18.31,0-25.09,17-42.83,17h1.52c-19.16,0-25.42-17-42.83-17-18.32,0-25.1,17-42.83,17"/><path class="cls-1" d="M430.94,162.74h1.51c-19.16,0-25.42-17-42.83-17-18.32,0-25.1,17-42.83,17-19.16,0-25.42-17-42.83-17-18.32,0-25.1,17-42.83,17h1.51c-19.16,0-25.42-17-42.83-17-18.31,0-25.09,17-42.83,17-19.16,0-25.42-17-42.83-17-18.31,0-25.1,17-42.83,17h1.51c-19.15,0-25.41-17-42.83-17-18.31,0-25.09,17-42.83,17"/><path class="cls-1" d="M430.75,209.36h1.51c-19.16,0-25.42-17-42.83-17-18.31,0-25.09,17-42.83,17-19.16,0-25.42-17-42.83-17-18.32,0-25.1,17-42.83,17h1.51c-19.15,0-25.41-17-42.83-17-18.31,0-25.09,17-42.83,17-19.16,0-25.41-17-42.83-17-18.31,0-25.09,17-42.83,17h1.52c-19.16,0-25.42-17-42.83-17-18.32,0-25.1,17-42.83,17"/><path class="cls-1" d="M430.75,302h1.51c-19.16,0-25.42-17-42.83-17-18.31,0-25.09,17-42.83,17-19.16,0-25.42-17-42.83-17-18.32,0-25.1,17-42.83,17h1.51c-19.15,0-25.41-17-42.83-17-18.31,0-25.09,17-42.83,17-19.16,0-25.41-17-42.83-17-18.31,0-25.09,17-42.83,17h1.52c-19.16,0-25.42-17-42.83-17C31.5,285,24.72,302,7,302"/><path class="cls-1" d="M430.75,255.67h1.51c-19.16,0-25.42-17-42.83-17-18.31,0-25.09,17-42.83,17-19.16,0-25.42-17-42.83-17-18.32,0-25.1,17-42.83,17h1.51c-19.15,0-25.41-17-42.83-17-18.31,0-25.09,17-42.83,17-19.16,0-25.41-17-42.83-17-18.31,0-25.09,17-42.83,17h1.52c-19.16,0-25.42-17-42.83-17-18.32,0-25.1,17-42.83,17"/><path class="cls-1" d="M431.12,348.31h1.52c-19.16,0-25.42-17-42.83-17-18.32,0-25.1,17-42.83,17-19.16,0-25.42-17-42.83-17-18.32,0-25.1,17-42.83,17h1.51c-19.16,0-25.42-17-42.83-17-18.32,0-25.1,17-42.83,17-19.16,0-25.42-17-42.83-17-18.32,0-25.1,17-42.83,17H93c-19.16,0-25.41-17-42.83-17-18.31,0-25.09,17-42.83,17"/></g></g></svg>