<svg xmlns="http://www.w3.org/2000/svg" viewBox="0 0 438.87 123.22"><defs><style>.cls-1{fill:none;stroke:#4ca3f2;stroke-linecap:round;stroke-linejoin:round;stroke-width:13.59px;}</style></defs><title>Asset 2</title><g id="Layer_2" data-name="Layer 2"><g id="Layer_2-2" data-name="Layer 2"><path class="cls-1" d="M430.56,23.79h1.51c-19.15,0-25.41-17-42.83-17-18.31,0-25.09,17-42.83,17-19.16,0-25.41-17-42.83-17-18.31,0-25.09,17-42.83,17h1.52c-19.16,0-25.42-17-42.83-17-18.32,0-25.1,17-42.83,17-19.16,0-25.42-17-42.84-17-18.31,0-25.09,17-42.83,17h1.52c-19.16,0-25.42-17-42.83-17-18.32,0-25.1,17-42.83,17"/><path class="cls-1" d="M430.56,116.42h1.51c-19.15,0-25.41-17-42.83-17-18.31,0-25.09,17-42.83,17-19.16,0-25.41-17-42.83-17-18.31,0-25.09,17-42.83,17h1.52c-19.16,0-25.42-17-42.83-17-18.32,0-25.1,17-42.83,17-19.16,0-25.42-17-42.84-17-18.31,0-25.09,17-42.83,17h1.52c-19.16,0-25.42-17-42.83-17-18.32,0-25.1,17-42.83,17"/><path class="cls-1" d="M430.56,70.11h1.51c-19.15,0-25.41-17-42.83-17-18.31,0-25.09,17-42.83,17-19.16,0-25.41-17-42.83-17-18.31,0-25.09,17-42.83,17h1.52c-19.16,0-25.42-17-42.83-17-18.32,0-25.1,17-42.83,17-19.16,0-25.42-17-42.84-17-18.31,0-25.09,17-42.83,17h1.52c-19.16,0-25.42-17-42.83-17-18.32,0-25.1,17-42.83,17"/></g></g></svg>