<svg xmlns="http://www.w3.org/2000/svg" viewBox="0 0 644.37 348.51"><defs><style>.cls-1{fill:none;stroke:#4ca3f2;stroke-linecap:round;stroke-linejoin:round;stroke-width:7px;}</style></defs><title>Asset 5</title><g id="Layer_2" data-name="Layer 2"><g id="Layer_2-2" data-name="Layer 2"><path class="cls-1" d="M427.26,20.49h1.52c-19.16,0-25.42-17-42.83-17-18.32,0-25.1,17-42.83,17-19.16,0-25.42-17-42.83-17-18.32,0-25.1,17-42.84,17H259c-19.16,0-25.42-17-42.83-17-18.32,0-25.1,17-42.83,17-19.16,0-25.42-17-42.83-17-18.32,0-25.1,17-42.83,17h1.51c-19.16,0-25.42-17-42.83-17-18.32,0-25.1,17-42.83,17"/><path class="cls-1" d="M427.26,113.13h1.52c-19.16,0-25.42-17-42.83-17-18.32,0-25.1,17-42.83,17-19.16,0-25.42-17-42.83-17-18.32,0-25.1,17-42.84,17H259c-19.16,0-25.42-17-42.83-17-18.32,0-25.1,17-42.83,17-19.16,0-25.42-17-42.83-17-18.32,0-25.1,17-42.83,17h1.51c-19.16,0-25.42-17-42.83-17-18.32,0-25.1,17-42.83,17"/><path class="cls-1" d="M427.26,66.81h1.52c-19.16,0-25.42-17-42.83-17-18.32,0-25.1,17-42.83,17-19.16,0-25.42-17-42.83-17-18.32,0-25.1,17-42.84,17H259c-19.16,0-25.42-17-42.83-17-18.32,0-25.1,17-42.83,17-19.16,0-25.42-17-42.83-17-18.32,0-25.1,17-42.83,17h1.51c-19.16,0-25.42-17-42.83-17-18.32,0-25.1,17-42.83,17"/><path class="cls-1" d="M427.64,159.44h1.51c-19.16,0-25.41-17-42.83-17-18.31,0-25.09,17-42.83,17-19.16,0-25.42-17-42.83-17-18.31,0-25.09,17-42.83,17h1.52c-19.16,0-25.42-17-42.84-17-18.31,0-25.09,17-42.83,17-19.15,0-25.41-17-42.83-17-18.31,0-25.09,17-42.83,17h1.52c-19.16,0-25.42-17-42.83-17-18.32,0-25.1,17-42.83,17"/><path class="cls-1" d="M427.45,206.06H429c-19.16,0-25.42-17-42.84-17-18.31,0-25.09,17-42.83,17-19.15,0-25.41-17-42.83-17-18.31,0-25.09,17-42.83,17h1.52c-19.16,0-25.42-17-42.83-17-18.32,0-25.1,17-42.83,17-19.16,0-25.42-17-42.83-17-18.32,0-25.1,17-42.83,17h1.51c-19.16,0-25.42-17-42.83-17-18.32,0-25.1,17-42.83,17"/><path class="cls-1" d="M427.45,298.69H429c-19.16,0-25.42-17-42.84-17-18.31,0-25.09,17-42.83,17-19.15,0-25.41-17-42.83-17-18.31,0-25.09,17-42.83,17h1.52c-19.16,0-25.42-17-42.83-17-18.32,0-25.1,17-42.83,17-19.16,0-25.42-17-42.83-17-18.32,0-25.1,17-42.83,17h1.51c-19.16,0-25.42-17-42.83-17-18.32,0-25.1,17-42.83,17"/><path class="cls-1" d="M427.45,252.38H429c-19.16,0-25.42-17-42.84-17-18.31,0-25.09,17-42.83,17-19.15,0-25.41-17-42.83-17-18.31,0-25.09,17-42.83,17h1.52c-19.16,0-25.42-17-42.83-17-18.32,0-25.1,17-42.83,17-19.16,0-25.42-17-42.83-17-18.32,0-25.1,17-42.83,17h1.51c-19.16,0-25.42-17-42.83-17-18.32,0-25.1,17-42.83,17"/><path class="cls-1" d="M427.83,345h1.51c-19.16,0-25.42-17-42.83-17-18.31,0-25.1,17-42.83,17-19.16,0-25.42-17-42.83-17-18.32,0-25.1,17-42.83,17h1.51c-19.15,0-25.41-17-42.83-17-18.31,0-25.09,17-42.83,17-19.16,0-25.42-17-42.83-17-18.31,0-25.09,17-42.83,17h1.52c-19.16,0-25.42-17-42.83-17-18.32,0-25.1,17-42.84,17"/><path class="cls-1" d="M597.47,20.49c-19.15,0-25.41-17-42.83-17-18.31,0-25.09,17-42.83,17h1.52c-19.16,0-25.42-17-42.83-17-18.32,0-25.1,17-42.83,17"/><path class="cls-1" d="M597.47,113.13c-19.15,0-25.41-17-42.83-17-18.31,0-25.09,17-42.83,17h1.52c-19.16,0-25.42-17-42.83-17-18.32,0-25.1,17-42.83,17"/><path class="cls-1" d="M597.47,66.81c-19.15,0-25.41-17-42.83-17-18.31,0-25.09,17-42.83,17h1.52c-19.16,0-25.42-17-42.83-17-18.32,0-25.1,17-42.83,17"/><path class="cls-1" d="M597.85,159.44c-19.16,0-25.42-17-42.83-17-18.32,0-25.1,17-42.83,17h1.51c-19.16,0-25.41-17-42.83-17-18.31,0-25.09,17-42.83,17"/><path class="cls-1" d="M597.66,206.06c-19.16,0-25.42-17-42.83-17-18.31,0-25.09,17-42.83,17h1.52c-19.16,0-25.42-17-42.84-17-18.31,0-25.09,17-42.83,17"/><path class="cls-1" d="M597.66,298.69c-19.16,0-25.42-17-42.83-17-18.31,0-25.09,17-42.83,17h1.52c-19.16,0-25.42-17-42.84-17-18.31,0-25.09,17-42.83,17"/><path class="cls-1" d="M597.66,252.38c-19.16,0-25.42-17-42.83-17-18.31,0-25.09,17-42.83,17h1.52c-19.16,0-25.42-17-42.84-17-18.31,0-25.09,17-42.83,17"/><path class="cls-1" d="M598,345c-19.16,0-25.42-17-42.83-17-18.32,0-25.1,17-42.83,17h1.51c-19.16,0-25.42-17-42.83-17-18.31,0-25.1,17-42.83,17"/><path class="cls-1" d="M640.3,3.5c-18.31,0-25.09,17-42.83,17"/><path class="cls-1" d="M640.3,96.13c-18.31,0-25.09,17-42.83,17"/><path class="cls-1" d="M640.3,49.82c-18.31,0-25.09,17-42.83,17"/><path class="cls-1" d="M640.68,142.45c-18.31,0-25.1,17-42.83,17"/><path class="cls-1" d="M640.49,189.07c-18.31,0-25.09,17-42.83,17"/><path class="cls-1" d="M640.49,281.7c-18.31,0-25.09,17-42.83,17"/><path class="cls-1" d="M640.49,235.38c-18.31,0-25.09,17-42.83,17"/><path class="cls-1" d="M640.87,328c-18.32,0-25.1,17-42.83,17"/></g></g></svg>