<svg xmlns="http://www.w3.org/2000/svg" viewBox="0 0 57.9 57.9"><defs><style>.cls-1{fill:none;}</style></defs><title>Asset 2</title><g id="Layer_2" data-name="Layer 2"><g id="Layer_1-2" data-name="Layer 1"><polygon class="cls-1" points="0 19.49 19.49 0 16.61 0 0 16.61 0 19.49"/><polygon class="cls-1" points="16.72 57.9 57.9 16.72 57.9 13.84 13.84 57.9 16.72 57.9"/><polygon class="cls-1" points="21.72 57.9 57.9 21.72 57.9 18.84 18.84 57.9 21.72 57.9"/><polygon class="cls-1" points="0 57.9 1.72 57.9 57.9 1.72 57.9 0 56.7 0 0 56.7 0 57.9"/><polygon class="cls-1" points="0 14.49 14.49 0 11.62 0 0 11.62 0 14.49"/><polygon class="cls-1" points="26.72 57.9 57.9 26.72 57.9 23.84 23.84 57.9 26.72 57.9"/><polygon class="cls-1" points="0 24.49 24.49 0 21.61 0 0 21.61 0 24.49"/><polygon class="cls-1" points="31.8 57.9 57.9 31.8 57.9 28.84 28.84 57.9 31.8 57.9"/><polygon class="cls-1" points="0 34.58 34.58 0 31.7 0 0 31.7 0 34.58"/><polygon class="cls-1" points="0 39.58 39.58 0 36.7 0 0 36.7 0 39.58"/><polygon class="cls-1" points="11.72 57.9 57.9 11.72 57.9 8.84 8.84 57.9 11.72 57.9"/><polygon class="cls-1" points="0 49.58 49.58 0 46.7 0 0 46.7 0 49.58"/><polygon class="cls-1" points="36.8 57.9 57.9 36.8 57.9 33.92 33.92 57.9 36.8 57.9"/><polygon class="cls-1" points="6.72 57.9 57.9 6.72 57.9 3.84 3.84 57.9 6.72 57.9"/><polygon class="cls-1" points="0 29.58 29.58 0 26.61 0 0 26.61 0 29.58"/><polygon class="cls-1" points="0 44.58 44.58 0 41.7 0 0 41.7 0 44.58"/><polygon class="cls-1" points="56.8 57.9 57.9 56.8 57.9 53.92 53.92 57.9 56.8 57.9"/><polygon class="cls-1" points="46.8 57.9 57.9 46.8 57.9 43.92 43.92 57.9 46.8 57.9"/><polygon class="cls-1" points="51.8 57.9 57.9 51.8 57.9 48.92 48.92 57.9 51.8 57.9"/><polygon class="cls-1" points="0 9.49 9.49 0 6.62 0 0 6.62 0 9.49"/><polygon class="cls-1" points="0 54.58 54.58 0 51.7 0 0 51.7 0 54.58"/><polygon class="cls-1" points="0 4.49 4.49 0 1.61 0 0 1.61 0 4.49"/><polygon class="cls-1" points="41.8 57.9 57.9 41.8 57.9 38.92 38.92 57.9 41.8 57.9"/><polygon points="0 0 0 1.61 1.61 0 0 0"/><polygon points="0 6.62 6.62 0 4.49 0 0 4.49 0 6.62"/><polygon points="0 11.62 11.62 0 9.49 0 0 9.49 0 11.62"/><polygon points="0 16.61 16.61 0 14.49 0 0 14.49 0 16.61"/><polygon points="0 21.61 21.61 0 19.49 0 0 19.49 0 21.61"/><polygon points="0 26.61 26.61 0 24.49 0 0 24.49 0 26.61"/><polygon points="0 31.7 31.7 0 29.58 0 0 29.58 0 31.7"/><polygon points="0 36.7 36.7 0 34.58 0 0 34.58 0 36.7"/><polygon points="0 41.7 41.7 0 39.58 0 0 39.58 0 41.7"/><polygon points="0 46.7 46.7 0 44.58 0 0 44.58 0 46.7"/><polygon points="0 51.7 51.7 0 49.58 0 0 49.58 0 51.7"/><polygon points="0 56.7 56.7 0 54.58 0 0 54.58 0 56.7"/><polygon points="3.84 57.9 57.9 3.84 57.9 1.72 1.72 57.9 3.84 57.9"/><polygon points="8.84 57.9 57.9 8.84 57.9 6.72 6.72 57.9 8.84 57.9"/><polygon points="13.84 57.9 57.9 13.84 57.9 11.72 11.72 57.9 13.84 57.9"/><polygon points="18.84 57.9 57.9 18.84 57.9 16.72 16.72 57.9 18.84 57.9"/><polygon points="23.84 57.9 57.9 23.84 57.9 21.72 21.72 57.9 23.84 57.9"/><polygon points="28.84 57.9 57.9 28.84 57.9 26.72 26.72 57.9 28.84 57.9"/><polygon points="33.92 57.9 57.9 33.92 57.9 31.8 31.8 57.9 33.92 57.9"/><polygon points="38.92 57.9 57.9 38.92 57.9 36.8 36.8 57.9 38.92 57.9"/><polygon points="43.92 57.9 57.9 43.92 57.9 41.8 41.8 57.9 43.92 57.9"/><polygon points="48.92 57.9 57.9 48.92 57.9 46.8 46.8 57.9 48.92 57.9"/><polygon points="53.92 57.9 57.9 53.92 57.9 51.8 51.8 57.9 53.92 57.9"/><polygon points="57.9 57.9 57.9 56.8 56.8 57.9 57.9 57.9"/></g></g></svg>