<svg xmlns="http://www.w3.org/2000/svg" viewBox="0 0 113.24 113.24"><defs><style>.cls-1{fill:none;}</style></defs><title>Asset 2</title><g id="Layer_2" data-name="Layer 2"><g id="Layer_1-2" data-name="Layer 1"><polygon class="cls-1" points="0 105.21 105.21 0 102.33 0 0 102.33 0 105.21"/><polygon class="cls-1" points="0 100.21 100.21 0 97.33 0 0 97.33 0 100.21"/><polygon class="cls-1" points="0 95.21 95.21 0 92.33 0 0 92.33 0 95.21"/><polygon class="cls-1" points="0 113.24 1.97 113.24 113.24 1.97 113.24 0 112.33 0 0 112.33 0 113.24"/><polygon class="cls-1" points="16.87 113.24 113.24 16.87 113.24 13.99 13.99 113.24 16.87 113.24"/><polygon class="cls-1" points="0 110.21 110.21 0 107.33 0 0 107.33 0 110.21"/><polygon class="cls-1" points="21.87 113.24 113.24 21.87 113.24 18.99 18.99 113.24 21.87 113.24"/><polygon class="cls-1" points="11.87 113.24 113.24 11.87 113.24 8.99 8.99 113.24 11.87 113.24"/><polygon class="cls-1" points="6.87 113.24 113.24 6.87 113.24 4.09 4.09 113.24 6.87 113.24"/><polygon class="cls-1" points="0 90.21 90.21 0 87.25 0 0 87.25 0 90.21"/><polygon class="cls-1" points="0 25 25 0 22.12 0 0 22.12 0 25"/><polygon class="cls-1" points="0 30.08 30.08 0 27.12 0 0 27.12 0 30.08"/><polygon class="cls-1" points="0 35.08 35.08 0 32.2 0 0 32.2 0 35.08"/><polygon class="cls-1" points="0 20 20 0 17.12 0 0 17.12 0 20"/><polygon class="cls-1" points="0 40.08 40.08 0 37.2 0 0 37.2 0 40.08"/><polygon class="cls-1" points="0 45.08 45.08 0 42.2 0 0 42.2 0 45.08"/><polygon class="cls-1" points="0 5 5 0 2.12 0 0 2.12 0 5"/><polygon class="cls-1" points="0 10 10 0 7.12 0 0 7.12 0 10"/><polygon class="cls-1" points="0 15 15 0 12.12 0 0 12.12 0 15"/><polygon class="cls-1" points="0 70.13 70.13 0 67.25 0 0 67.25 0 70.13"/><polygon class="cls-1" points="0 75.13 75.13 0 72.25 0 0 72.25 0 75.13"/><polygon class="cls-1" points="0 85.13 85.13 0 82.25 0 0 82.25 0 85.13"/><polygon class="cls-1" points="0 80.13 80.13 0 77.25 0 0 77.25 0 80.13"/><polygon class="cls-1" points="0 60.13 60.13 0 57.2 0 0 57.2 0 60.13"/><polygon class="cls-1" points="0 55.08 55.08 0 52.2 0 0 52.2 0 55.08"/><polygon class="cls-1" points="0 65.13 65.13 0 62.25 0 0 62.25 0 65.13"/><polygon class="cls-1" points="0 50.08 50.08 0 47.2 0 0 47.2 0 50.08"/><polygon class="cls-1" points="26.87 113.24 113.24 26.87 113.24 23.99 23.99 113.24 26.87 113.24"/><polygon class="cls-1" points="97.08 113.24 113.24 97.08 113.24 94.12 94.12 113.24 97.08 113.24"/><polygon class="cls-1" points="51.95 113.24 113.24 51.95 113.24 49.08 49.08 113.24 51.95 113.24"/><polygon class="cls-1" points="41.95 113.24 113.24 41.95 113.24 39.08 39.08 113.24 41.95 113.24"/><polygon class="cls-1" points="56.95 113.24 113.24 56.95 113.24 54.08 54.08 113.24 56.95 113.24"/><polygon class="cls-1" points="72 113.24 113.24 72 113.24 69.12 69.12 113.24 72 113.24"/><polygon class="cls-1" points="112.08 113.24 113.24 112.08 113.24 109.2 109.2 113.24 112.08 113.24"/><polygon class="cls-1" points="107.08 113.24 113.24 107.08 113.24 104.2 104.2 113.24 107.08 113.24"/><polygon class="cls-1" points="102.08 113.24 113.24 102.08 113.24 99.2 99.2 113.24 102.08 113.24"/><polygon class="cls-1" points="46.95 113.24 113.24 46.95 113.24 44.08 44.08 113.24 46.95 113.24"/><polygon class="cls-1" points="36.95 113.24 113.24 36.95 113.24 33.99 33.99 113.24 36.95 113.24"/><polygon class="cls-1" points="61.95 113.24 113.24 61.95 113.24 59.08 59.08 113.24 61.95 113.24"/><polygon class="cls-1" points="77 113.24 113.24 77 113.24 74.12 74.12 113.24 77 113.24"/><polygon class="cls-1" points="92 113.24 113.24 92 113.24 89.12 89.12 113.24 92 113.24"/><polygon class="cls-1" points="31.87 113.24 113.24 31.87 113.24 28.99 28.99 113.24 31.87 113.24"/><polygon class="cls-1" points="67 113.24 113.24 67 113.24 64.08 64.08 113.24 67 113.24"/><polygon class="cls-1" points="82 113.24 113.24 82 113.24 79.12 79.12 113.24 82 113.24"/><polygon class="cls-1" points="87 113.24 113.24 87 113.24 84.12 84.12 113.24 87 113.24"/><polygon points="0 2.12 2.12 0 0 0 0 2.12"/><polygon points="0 7.12 7.12 0 5 0 0 5 0 7.12"/><polygon points="0 12.12 12.12 0 10 0 0 10 0 12.12"/><polygon points="0 17.12 17.12 0 15 0 0 15 0 17.12"/><polygon points="0 22.12 22.12 0 20 0 0 20 0 22.12"/><polygon points="0 27.12 27.12 0 25 0 0 25 0 27.12"/><polygon points="0 32.2 32.2 0 30.08 0 0 30.08 0 32.2"/><polygon points="0 37.2 37.2 0 35.08 0 0 35.08 0 37.2"/><polygon points="0 42.2 42.2 0 40.08 0 0 40.08 0 42.2"/><polygon points="0 47.2 47.2 0 45.08 0 0 45.08 0 47.2"/><polygon points="0 52.2 52.2 0 50.08 0 0 50.08 0 52.2"/><polygon points="0 57.2 57.2 0 55.08 0 0 55.08 0 57.2"/><polygon points="0 62.25 62.25 0 60.13 0 0 60.13 0 62.25"/><polygon points="0 67.25 67.25 0 65.13 0 0 65.13 0 67.25"/><polygon points="0 72.25 72.25 0 70.13 0 0 70.13 0 72.25"/><polygon points="0 77.25 77.25 0 75.13 0 0 75.13 0 77.25"/><polygon points="0 82.25 82.25 0 80.13 0 0 80.13 0 82.25"/><polygon points="0 87.25 87.25 0 85.13 0 0 85.13 0 87.25"/><polygon points="0 92.33 92.33 0 90.21 0 0 90.21 0 92.33"/><polygon points="0 97.33 97.33 0 95.21 0 0 95.21 0 97.33"/><polygon points="0 102.33 102.33 0 100.21 0 0 100.21 0 102.33"/><polygon points="0 107.33 107.33 0 105.21 0 0 105.21 0 107.33"/><polygon points="0 112.33 112.33 0 110.21 0 0 110.21 0 112.33"/><polygon points="4.09 113.24 113.24 4.09 113.24 1.97 1.97 113.24 4.09 113.24"/><polygon points="8.99 113.24 113.24 8.99 113.24 6.87 6.87 113.24 8.99 113.24"/><polygon points="13.99 113.24 113.24 13.99 113.24 11.87 11.87 113.24 13.99 113.24"/><polygon points="18.99 113.24 113.24 18.99 113.24 16.87 16.87 113.24 18.99 113.24"/><polygon points="23.99 113.24 113.24 23.99 113.24 21.87 21.87 113.24 23.99 113.24"/><polygon points="28.99 113.24 113.24 28.99 113.24 26.87 26.87 113.24 28.99 113.24"/><polygon points="33.99 113.24 113.24 33.99 113.24 31.87 31.87 113.24 33.99 113.24"/><polygon points="39.08 113.24 113.24 39.08 113.24 36.95 36.95 113.24 39.08 113.24"/><polygon points="44.08 113.24 113.24 44.08 113.24 41.95 41.95 113.24 44.08 113.24"/><polygon points="49.08 113.24 113.24 49.08 113.24 46.95 46.95 113.24 49.08 113.24"/><polygon points="54.08 113.24 113.24 54.08 113.24 51.95 51.95 113.24 54.08 113.24"/><polygon points="59.08 113.24 113.24 59.08 113.24 56.95 56.95 113.24 59.08 113.24"/><polygon points="64.08 113.24 113.24 64.08 113.24 61.95 61.95 113.24 64.08 113.24"/><polygon points="69.12 113.24 113.24 69.12 113.24 67 67 113.24 69.12 113.24"/><polygon points="74.12 113.24 113.24 74.12 113.24 72 72 113.24 74.12 113.24"/><polygon points="79.12 113.24 113.24 79.12 113.24 77 77 113.24 79.12 113.24"/><polygon points="84.12 113.24 113.24 84.12 113.24 82 82 113.24 84.12 113.24"/><polygon points="89.12 113.24 113.24 89.12 113.24 87 87 113.24 89.12 113.24"/><polygon points="94.12 113.24 113.24 94.12 113.24 92 92 113.24 94.12 113.24"/><polygon points="99.2 113.24 113.24 99.2 113.24 97.08 97.08 113.24 99.2 113.24"/><polygon points="104.2 113.24 113.24 104.2 113.24 102.08 102.08 113.24 104.2 113.24"/><polygon points="109.2 113.24 113.24 109.2 113.24 107.08 107.08 113.24 109.2 113.24"/><polygon points="113.24 113.24 113.24 112.08 112.08 113.24 113.24 113.24"/></g></g></svg>