<svg xmlns="http://www.w3.org/2000/svg" viewBox="0 0 646.51 580.39"><defs><style>.cls-1{fill:none;stroke:#4ca3f2;stroke-linecap:round;stroke-linejoin:round;stroke-width:7px;}</style></defs><title>Asset 8</title><g id="Layer_2" data-name="Layer 2"><g id="Layer_2-2" data-name="Layer 2"><path class="cls-1" d="M219.25,559.9h-1.52c19.16,0,25.42,17,42.83,17,18.32,0,25.1-17,42.83-17,19.16,0,25.42,17,42.83,17,18.32,0,25.1-17,42.83-17h-1.51c19.16,0,25.42,17,42.83,17,18.32,0,25.1-17,42.83-17,19.16,0,25.42,17,42.83,17,18.32,0,25.1-17,42.83-17h-1.51c19.16,0,25.41,17,42.83,17,18.31,0,25.09-17,42.83-17"/><path class="cls-1" d="M219.25,467.27h-1.52c19.16,0,25.42,17,42.83,17,18.32,0,25.1-17,42.83-17,19.16,0,25.42,17,42.83,17,18.32,0,25.1-17,42.83-17h-1.51c19.16,0,25.42,17,42.83,17,18.32,0,25.1-17,42.83-17,19.16,0,25.42,17,42.83,17,18.32,0,25.1-17,42.83-17h-1.51c19.16,0,25.41,17,42.83,17,18.31,0,25.09-17,42.83-17"/><path class="cls-1" d="M219.25,513.58h-1.52c19.16,0,25.42,17,42.83,17,18.32,0,25.1-17,42.83-17,19.16,0,25.42,17,42.83,17,18.32,0,25.1-17,42.83-17h-1.51c19.16,0,25.42,17,42.83,17,18.32,0,25.1-17,42.83-17,19.16,0,25.42,17,42.83,17,18.32,0,25.1-17,42.83-17h-1.51c19.16,0,25.41,17,42.83,17,18.31,0,25.09-17,42.83-17"/><path class="cls-1" d="M218.87,421h-1.52c19.16,0,25.42,17,42.84,17,18.31,0,25.09-17,42.83-17,19.15,0,25.41,17,42.83,17,18.31,0,25.09-17,42.83-17h-1.52c19.16,0,25.42,17,42.83,17,18.32,0,25.1-17,42.83-17,19.16,0,25.42,17,42.83,17,18.32,0,25.1-17,42.83-17H557c19.16,0,25.42,17,42.83,17,18.32,0,25.1-17,42.83-17"/><path class="cls-1" d="M219.06,374.33h-1.52c19.16,0,25.42,17,42.83,17,18.32,0,25.1-17,42.83-17,19.16,0,25.42,17,42.83,17,18.32,0,25.1-17,42.84-17h-1.52c19.16,0,25.42,17,42.83,17,18.32,0,25.1-17,42.83-17,19.16,0,25.42,17,42.83,17,18.32,0,25.1-17,42.83-17h-1.51c19.16,0,25.42,17,42.83,17,18.32,0,25.1-17,42.83-17"/><path class="cls-1" d="M219.06,281.7h-1.52c19.16,0,25.42,17,42.83,17,18.32,0,25.1-17,42.83-17,19.16,0,25.42,17,42.83,17,18.32,0,25.1-17,42.84-17h-1.52c19.16,0,25.42,17,42.83,17,18.32,0,25.1-17,42.83-17,19.16,0,25.42,17,42.83,17,18.32,0,25.1-17,42.83-17h-1.51c19.16,0,25.42,17,42.83,17,18.32,0,25.1-17,42.83-17"/><path class="cls-1" d="M219.06,328h-1.52c19.16,0,25.42,17,42.83,17,18.32,0,25.1-17,42.83-17,19.16,0,25.42,17,42.83,17,18.32,0,25.1-17,42.84-17h-1.52c19.16,0,25.42,17,42.83,17,18.32,0,25.1-17,42.83-17,19.16,0,25.42,17,42.83,17,18.32,0,25.1-17,42.83-17h-1.51c19.16,0,25.42,17,42.83,17,18.32,0,25.1-17,42.83-17"/><path class="cls-1" d="M218.68,235.38h-1.51c19.15,0,25.41,17,42.83,17,18.31,0,25.09-17,42.83-17,19.16,0,25.42,17,42.83,17,18.31,0,25.09-17,42.83-17H387c19.16,0,25.42,17,42.83,17,18.32,0,25.1-17,42.84-17,19.15,0,25.41,17,42.83,17,18.31,0,25.09-17,42.83-17h-1.52c19.16,0,25.42,17,42.83,17,18.32,0,25.1-17,42.83-17"/><path class="cls-1" d="M49,559.9c19.16,0,25.42,17,42.83,17,18.32,0,25.1-17,42.84-17h-1.52c19.16,0,25.42,17,42.83,17,18.32,0,25.1-17,42.83-17"/><path class="cls-1" d="M49,467.27c19.16,0,25.42,17,42.83,17,18.32,0,25.1-17,42.84-17h-1.52c19.16,0,25.42,17,42.83,17,18.32,0,25.1-17,42.83-17"/><path class="cls-1" d="M49,513.58c19.16,0,25.42,17,42.83,17,18.32,0,25.1-17,42.84-17h-1.52c19.16,0,25.42,17,42.83,17,18.32,0,25.1-17,42.83-17"/><path class="cls-1" d="M48.66,421c19.16,0,25.42,17,42.83,17,18.31,0,25.09-17,42.83-17H132.8c19.16,0,25.42,17,42.84,17,18.31,0,25.09-17,42.83-17"/><path class="cls-1" d="M48.85,374.33c19.15,0,25.41,17,42.83,17,18.31,0,25.09-17,42.83-17H133c19.16,0,25.42,17,42.83,17,18.32,0,25.1-17,42.83-17"/><path class="cls-1" d="M48.85,281.7c19.15,0,25.41,17,42.83,17,18.31,0,25.09-17,42.83-17H133c19.16,0,25.42,17,42.83,17,18.32,0,25.1-17,42.83-17"/><path class="cls-1" d="M48.85,328c19.15,0,25.41,17,42.83,17,18.31,0,25.09-17,42.83-17H133c19.16,0,25.42,17,42.83,17,18.32,0,25.1-17,42.83-17"/><path class="cls-1" d="M48.47,235.38c19.16,0,25.42,17,42.83,17,18.32,0,25.1-17,42.83-17h-1.51c19.15,0,25.41,17,42.83,17,18.31,0,25.09-17,42.83-17"/><path class="cls-1" d="M6.2,576.89c18.32,0,25.1-17,42.83-17"/><path class="cls-1" d="M6.2,484.26c18.32,0,25.1-17,42.83-17"/><path class="cls-1" d="M6.2,530.57c18.32,0,25.1-17,42.83-17"/><path class="cls-1" d="M5.83,437.94c18.31,0,25.09-17,42.83-17"/><path class="cls-1" d="M6,391.32c18.31,0,25.09-17,42.83-17"/><path class="cls-1" d="M6,298.69c18.31,0,25.09-17,42.83-17"/><path class="cls-1" d="M6,345c18.31,0,25.09-17,42.83-17"/><path class="cls-1" d="M5.64,252.38c18.31,0,25.1-17,42.83-17"/><path class="cls-1" d="M216.73,189.07h-1.51c19.15,0,25.41,17,42.83,17,18.31,0,25.09-17,42.83-17,19.16,0,25.41,17,42.83,17,18.31,0,25.09-17,42.83-17H385c19.16,0,25.42,17,42.83,17,18.32,0,25.1-17,42.83-17,19.16,0,25.42,17,42.84,17,18.31,0,25.09-17,42.83-17h-1.52c19.16,0,25.42,17,42.83,17,18.32,0,25.1-17,42.83-17"/><path class="cls-1" d="M216.92,142.45H215.4c19.16,0,25.42,17,42.83,17,18.32,0,25.1-17,42.84-17,19.15,0,25.41,17,42.83,17,18.31,0,25.09-17,42.83-17h-1.52c19.16,0,25.42,17,42.83,17,18.32,0,25.1-17,42.83-17,19.16,0,25.42,17,42.83,17,18.32,0,25.1-17,42.83-17H555c19.16,0,25.42,17,42.83,17,18.32,0,25.1-17,42.83-17"/><path class="cls-1" d="M216.92,49.82H215.4c19.16,0,25.42,17,42.83,17,18.32,0,25.1-17,42.84-17,19.15,0,25.41,17,42.83,17,18.31,0,25.09-17,42.83-17h-1.52c19.16,0,25.42,17,42.83,17,18.32,0,25.1-17,42.83-17,19.16,0,25.42,17,42.83,17,18.32,0,25.1-17,42.83-17H555c19.16,0,25.42,17,42.83,17,18.32,0,25.1-17,42.83-17"/><path class="cls-1" d="M216.92,96.13H215.4c19.16,0,25.42,17,42.83,17,18.32,0,25.1-17,42.84-17,19.15,0,25.41,17,42.83,17,18.31,0,25.09-17,42.83-17h-1.52c19.16,0,25.42,17,42.83,17,18.32,0,25.1-17,42.83-17,19.16,0,25.42,17,42.83,17,18.32,0,25.1-17,42.83-17H555c19.16,0,25.42,17,42.83,17,18.32,0,25.1-17,42.83-17"/><path class="cls-1" d="M216.54,3.5H215c19.16,0,25.42,17,42.83,17,18.31,0,25.09-17,42.83-17,19.16,0,25.42,17,42.83,17,18.32,0,25.1-17,42.83-17h-1.51c19.15,0,25.41,17,42.83,17,18.31,0,25.09-17,42.83-17,19.16,0,25.41,17,42.83,17,18.31,0,25.09-17,42.83-17h-1.52c19.16,0,25.42,17,42.83,17,18.32,0,25.1-17,42.83-17"/><path class="cls-1" d="M46.52,189.07c19.16,0,25.42,17,42.83,17,18.32,0,25.1-17,42.83-17h-1.51c19.15,0,25.41,17,42.83,17,18.31,0,25.09-17,42.83-17"/><path class="cls-1" d="M46.71,142.45c19.16,0,25.41,17,42.83,17,18.31,0,25.09-17,42.83-17h-1.52c19.16,0,25.42,17,42.83,17,18.32,0,25.1-17,42.83-17"/><path class="cls-1" d="M46.71,49.82c19.16,0,25.41,17,42.83,17,18.31,0,25.09-17,42.83-17h-1.52c19.16,0,25.42,17,42.83,17,18.32,0,25.1-17,42.83-17"/><path class="cls-1" d="M46.71,96.13c19.16,0,25.41,17,42.83,17,18.31,0,25.09-17,42.83-17h-1.52c19.16,0,25.42,17,42.83,17,18.32,0,25.1-17,42.83-17"/><path class="cls-1" d="M46.33,3.5c19.16,0,25.42,17,42.83,17,18.32,0,25.1-17,42.83-17h-1.51c19.16,0,25.42,17,42.83,17,18.31,0,25.09-17,42.83-17"/><path class="cls-1" d="M3.69,206.06c18.31,0,25.09-17,42.83-17"/><path class="cls-1" d="M3.88,159.44c18.31,0,25.09-17,42.83-17"/><path class="cls-1" d="M3.88,66.81c18.31,0,25.09-17,42.83-17"/><path class="cls-1" d="M3.88,113.13c18.31,0,25.09-17,42.83-17"/><path class="cls-1" d="M3.5,20.49c18.32,0,25.1-17,42.83-17"/></g></g></svg>